<svg width="19" height="19" viewBox="0 0 19 19" fill="none" xmlns="http://www.w3.org/2000/svg">
<path d="M14.4811 17.3179C13.5886 18.2151 12.6142 18.0734 11.6762 17.6485C10.6835 17.2141 9.77285 17.1952 8.72555 17.6485C7.41416 18.2339 6.72204 18.064 5.93884 17.3179C1.49468 12.568 2.15037 5.33445 7.19559 5.07004C8.42503 5.13614 9.28107 5.76884 10.0005 5.8255C11.0751 5.59886 12.1042 4.94728 13.2517 5.03227C14.6268 5.14559 15.665 5.71218 16.348 6.73205C13.5067 8.49794 14.1806 12.3791 16.7852 13.4651C16.2661 14.8816 15.5922 16.2886 14.472 17.3274L14.4811 17.3179V17.3179ZM9.90945 5.01338C9.77285 2.90754 11.4212 1.16998 13.3154 1C13.5795 3.43636 11.1844 5.24946 9.90945 5.01338Z" fill="black"/>
</svg>
