<svg width="40" height="41" viewBox="0 0 40 41" fill="none" xmlns="http://www.w3.org/2000/svg">
<path d="M18.0635 4.33984V6.78929" stroke="#28B0FF" stroke-width="2.63077" stroke-linecap="round" stroke-linejoin="round"/>
<path d="M25.4121 14.1377H27.8616" stroke="#28B0FF" stroke-width="2.63077" stroke-linecap="round" stroke-linejoin="round"/>
<path d="M10.7161 14.1377H8.2666" stroke="#28B0FF" stroke-width="2.63077" stroke-linecap="round" stroke-linejoin="round"/>
<path d="M23.2588 8.94102L24.9908 7.20898" stroke="#28B0FF" stroke-width="2.63077" stroke-linecap="round" stroke-linejoin="round"/>
<path d="M12.8678 8.94102L11.1357 7.20898" stroke="#28B0FF" stroke-width="2.63077" stroke-linecap="round" stroke-linejoin="round"/>
<path d="M32.872 36.182L33.3487 30.9368C33.6884 27.1996 30.7077 23.9953 26.9557 24.0647L21.1257 24.1724V14.7493C21.1257 13.0583 19.7548 11.6875 18.0638 11.6875C16.3728 11.6875 15.002 13.0583 15.002 14.7493V30.0584L12.0923 27.1486C10.9937 26.05 9.21256 26.05 8.11401 27.1486C7.14165 28.1209 7.01477 29.6537 7.81405 30.7729L11.6778 36.182" stroke="black" stroke-width="2.63077" stroke-linecap="round" stroke-linejoin="round"/>
</svg>
