<svg width="44" height="40" viewBox="0 0 44 40" fill="none" xmlns="http://www.w3.org/2000/svg">
<path d="M14.8013 28.3163H13.6735C12.4278 28.3163 11.418 27.3065 11.418 26.0607V9.14421C11.418 7.89852 12.4278 6.88867 13.6735 6.88867H29.4623C30.7079 6.88867 31.7178 7.89852 31.7178 9.14421V19.2941H40.7399V26.0607C40.7399 27.3065 39.7301 28.3163 38.4844 28.3163H36.2289" stroke="black" stroke-width="2.4225" stroke-linecap="round" stroke-linejoin="round"/>
<path d="M40.7389 19.294L37.9791 13.7742C37.597 13.01 36.8159 12.5273 35.9617 12.5273H31.7168" stroke="black" stroke-width="2.4225" stroke-linecap="round" stroke-linejoin="round"/>
<path d="M32.8427 31.7001C30.9728 31.7001 29.457 30.1842 29.457 28.3144C29.457 26.4445 30.9728 24.9287 32.8427 24.9287C34.7127 24.9287 36.2284 26.4445 36.2284 28.3144C36.2284 30.1842 34.7127 31.7001 32.8427 31.7001Z" stroke="black" stroke-width="2.4225" stroke-linecap="round" stroke-linejoin="round"/>
<path d="M18.1826 31.7001C16.3127 31.7001 14.7969 30.1842 14.7969 28.3144C14.7969 26.4445 16.3127 24.9287 18.1826 24.9287C20.0524 24.9287 21.5683 26.4445 21.5683 28.3144C21.5683 30.1842 20.0524 31.7001 18.1826 31.7001Z" stroke="black" stroke-width="2.4225" stroke-linecap="round" stroke-linejoin="round"/>
<path d="M21.5684 28.3164H29.4627" stroke="black" stroke-width="2.4225" stroke-linecap="round" stroke-linejoin="round"/>
<path d="M31.7168 19.2939V25.1195" stroke="black" stroke-width="2.4225" stroke-linecap="round" stroke-linejoin="round"/>
<path d="M1.86914 11.7939H7.86914" stroke="#28B0FF" stroke-width="2.63077" stroke-linecap="round" stroke-linejoin="round"/>
<path d="M5 16.7939L7 16.7939" stroke="#28B0FF" stroke-width="2.63077" stroke-linecap="round" stroke-linejoin="round"/>
<path d="M1.86914 21.7939H7.86914" stroke="#28B0FF" stroke-width="2.63077" stroke-linecap="round" stroke-linejoin="round"/>
</svg>
