<svg width="37" height="38" viewBox="0 0 37 38" fill="none" xmlns="http://www.w3.org/2000/svg">
<path d="M16.0625 3.3584V5.80785" stroke="#28B0FF" stroke-width="2.63077" stroke-linecap="round" stroke-linejoin="round"/>
<path d="M23.4121 13.1562H25.8616" stroke="#28B0FF" stroke-width="2.63077" stroke-linecap="round" stroke-linejoin="round"/>
<path d="M8.71508 13.1562H6.26562" stroke="#28B0FF" stroke-width="2.63077" stroke-linecap="round" stroke-linejoin="round"/>
<path d="M21.2578 7.95957L22.9898 6.22754" stroke="#28B0FF" stroke-width="2.63077" stroke-linecap="round" stroke-linejoin="round"/>
<path d="M10.8668 7.95957L9.13477 6.22754" stroke="#28B0FF" stroke-width="2.63077" stroke-linecap="round" stroke-linejoin="round"/>
<path d="M30.871 35.2006L31.3477 29.9553C31.6874 26.2181 28.7067 23.0139 24.9547 23.0832L19.1247 23.191V13.7679C19.1247 12.0769 17.7539 10.7061 16.0629 10.7061C14.3719 10.7061 13.0011 12.0769 13.0011 13.7679V29.0769L10.0913 26.1672C8.99273 25.0686 7.21158 25.0686 6.11303 26.1672C5.14067 27.1394 5.01379 28.6723 5.81307 29.7914L9.67681 35.2006" stroke="black" stroke-width="2.63077" stroke-linecap="round" stroke-linejoin="round"/>
</svg>
