<svg width="40" height="41" viewBox="0 0 40 41" fill="none" xmlns="http://www.w3.org/2000/svg">
<path d="M4.07812 12.8142V7.50709C4.07812 6.04157 5.26618 4.85352 6.7317 4.85352H12.0388" stroke="black" stroke-width="2.25641" stroke-linecap="round" stroke-linejoin="round"/>
<path d="M27.9609 4.85352H33.2681C34.7336 4.85352 35.9217 6.04157 35.9217 7.50709V12.8142" stroke="black" stroke-width="2.25641" stroke-linecap="round" stroke-linejoin="round"/>
<path d="M35.9217 28.7363V34.0435C35.9217 35.509 34.7336 36.697 33.2681 36.697H27.9609" stroke="black" stroke-width="2.25641" stroke-linecap="round" stroke-linejoin="round"/>
<path d="M12.0388 36.697H6.7317C5.26618 36.697 4.07812 35.509 4.07812 34.0435V28.7363" stroke="black" stroke-width="2.25641" stroke-linecap="round" stroke-linejoin="round"/>
<path d="M17.2901 15.1788L19.2585 10.3985C19.3563 10.1609 19.5879 10.0059 19.8448 10.0059C20.1016 10.0059 20.3332 10.1609 20.431 10.3985L22.3994 15.1788C22.9382 16.4875 23.9774 17.5267 25.2861 18.0655L30.0666 20.0339C30.3041 20.1317 30.459 20.3633 30.459 20.6201C30.459 20.877 30.3041 21.1086 30.0666 21.2064L25.2861 23.1748C23.9774 23.7136 22.9382 24.7528 22.3994 26.0615L20.431 30.842C20.3332 31.0795 20.1016 31.2344 19.8448 31.2344C19.5879 31.2344 19.3563 31.0795 19.2585 30.842L17.2901 26.0615C16.7513 24.7528 15.7121 23.7136 14.4034 23.1748L9.62306 21.2064C9.38552 21.1086 9.23047 20.877 9.23047 20.6201C9.23047 20.3633 9.38552 20.1317 9.62306 20.0339L14.4034 18.0655C15.7121 17.5267 16.7513 16.4875 17.2901 15.1788Z" stroke="#28B0FF" stroke-width="2.25641" stroke-linecap="round" stroke-linejoin="round"/>
</svg>
