<svg width="42" height="20" viewBox="0 0 42 20" fill="none" xmlns="http://www.w3.org/2000/svg">
<path d="M35.4767 0.258365C34.7391 0.296485 34.0039 0.43327 33.2032 0.684416C31.7584 1.13513 30.2528 1.88184 27.7739 3.37526C25.0943 4.98977 24.6578 5.24316 23.6191 5.80824C20.6009 7.44517 18.981 8.05734 17.0483 8.29503C16.8732 8.31746 16.208 8.32418 14.3873 8.32643C12.0835 8.32867 11.4859 8.34212 10.4075 8.40715C7.23068 8.59775 4.87782 9.08883 3.12484 9.93197C1.41854 10.7527 0.405505 11.8963 0.10206 13.3493C-0.0543306 14.1028 -0.0309887 14.9459 0.172086 15.7061C0.519881 17.0111 1.42788 18.0718 2.71636 18.675C3.44696 19.0181 4.07252 19.175 4.96418 19.2378C5.94688 19.3073 7.33572 19.0764 8.7269 18.6189C9.53453 18.3521 10.1624 18.0942 11.843 17.3408C12.5106 17.0425 13.1945 16.7398 13.3603 16.6681C15.7878 15.6366 17.7416 15.1769 19.6859 15.1769C20.2952 15.1769 20.6453 15.2015 21.7167 15.3226C25.2553 15.7195 27.118 15.863 29.1277 15.8877C32.5193 15.9303 34.7485 15.5088 36.6345 14.4705C38.4879 13.448 40.0401 11.8402 41.0088 9.94094C41.534 8.91169 41.8328 7.96316 41.9705 6.86888C42.0148 6.52132 42.0078 5.55934 41.9588 5.22074C41.674 3.26987 40.5793 1.80784 38.7423 0.928834C38.5299 0.827927 38.2218 0.695628 38.056 0.637326C37.2461 0.350302 36.3171 0.213517 35.4767 0.258365ZM34.1696 3.12412C34.7812 3.15551 35.5491 3.38423 36.1723 3.72507C37.2507 4.31033 37.8856 5.15347 38.084 6.25223C38.1331 6.51683 38.1377 7.1873 38.0957 7.47432C37.6872 10.2324 35.0192 12.9951 31.9428 13.8427C31.0114 14.0983 30.0404 14.2127 28.7823 14.2127C27.4985 14.2127 26.4621 14.1319 22.3329 13.7104C20.678 13.5399 20.1388 13.5063 19.4292 13.5243C18.3251 13.5534 17.3424 13.6969 16.334 13.975C15.3467 14.2485 14.5437 14.5647 12.8701 15.3338C11.8781 15.789 11.4626 15.9729 10.9561 16.1747C9.8123 16.6322 8.70123 16.9214 7.89826 16.9685C5.73447 17.0964 3.90213 15.8743 3.49831 14.0355C3.43062 13.7306 3.41195 13.1946 3.45863 12.9009C3.61735 11.9187 4.25459 11.1787 5.40068 10.6473C6.61679 10.0822 8.23205 9.78173 10.746 9.6584C11.4602 9.62252 13.5704 9.62252 15.2743 9.6584C16.7122 9.68755 17.228 9.67858 17.8256 9.60458C19.3358 9.41846 21.0701 8.83096 23.0238 7.83983C23.9108 7.38911 24.5014 7.06621 26.0583 6.17823C27.9093 5.12207 28.6282 4.7319 29.4802 4.32379C30.806 3.68471 31.8027 3.34163 32.8041 3.18018C33.0959 3.13309 33.6491 3.09273 33.8311 3.10394C33.8825 3.10842 34.0342 3.11739 34.1696 3.12412Z" fill="#2E2525"/>
</svg>
