<svg width="10" height="11" viewBox="0 0 10 11" fill="none" xmlns="http://www.w3.org/2000/svg">
<path d="M8.92087 5.46139L5.17087 1.71139C5.01463 1.55643 4.80343 1.46955 4.58337 1.46973H1.66671C1.44569 1.46973 1.23373 1.55752 1.07745 1.7138C0.921172 1.87008 0.833374 2.08205 0.833374 2.30306V5.21973C0.833287 5.32969 0.854964 5.43858 0.897156 5.54013C0.939348 5.64168 1.00122 5.73387 1.07921 5.81139L4.82921 9.56139C4.98545 9.71636 5.19665 9.80324 5.41671 9.80306C5.63736 9.80213 5.84864 9.71372 6.00421 9.55723L8.92087 6.64056C9.07737 6.485 9.16578 6.27372 9.16671 6.05306C9.16679 5.9431 9.14512 5.8342 9.10293 5.73266C9.06073 5.63111 8.99886 5.53892 8.92087 5.46139ZM5.41671 8.96973L1.66671 5.21973V2.30306H4.58337L8.33337 6.05306M2.70837 2.71973C2.83199 2.71973 2.95282 2.75638 3.05561 2.82506C3.15839 2.89373 3.23849 2.99135 3.2858 3.10555C3.3331 3.21975 3.34548 3.34542 3.32137 3.46666C3.29725 3.5879 3.23772 3.69926 3.15032 3.78667C3.06291 3.87408 2.95154 3.9336 2.83031 3.95772C2.70907 3.98183 2.5834 3.96946 2.4692 3.92215C2.35499 3.87485 2.25738 3.79474 2.18871 3.69196C2.12003 3.58918 2.08337 3.46834 2.08337 3.34473C2.08337 3.17897 2.14922 3.02 2.26643 2.90279C2.38364 2.78557 2.54261 2.71973 2.70837 2.71973Z" fill="#266E3E"/>
</svg>
