<svg width="68" height="15" viewBox="0 0 68 15" fill="none" xmlns="http://www.w3.org/2000/svg">
<path d="M7.00005 10.2424L4.66568 11.6486C4.56256 11.7142 4.45475 11.7424 4.34225 11.733C4.22975 11.7236 4.13131 11.6861 4.04693 11.6205C3.96256 11.5549 3.89693 11.4729 3.85006 11.3747C3.80318 11.2764 3.79381 11.1662 3.82193 11.0439L4.44068 8.38612L2.3735 6.60019C2.27975 6.51581 2.22125 6.41962 2.198 6.31162C2.17475 6.20362 2.18169 6.09825 2.21881 5.9955C2.25594 5.89275 2.31219 5.80838 2.38756 5.74238C2.46294 5.67638 2.56606 5.63419 2.69694 5.61581L5.42506 5.37675L6.47974 2.87363C6.52662 2.76113 6.59937 2.67676 6.69799 2.62051C6.79662 2.56426 6.8973 2.53613 7.00005 2.53613C7.1028 2.53613 7.20349 2.56426 7.30211 2.62051C7.40074 2.67676 7.47349 2.76113 7.52036 2.87363L8.57505 5.37675L11.3032 5.61581C11.4344 5.63456 11.5375 5.67675 11.6125 5.74238C11.6875 5.808 11.7438 5.89238 11.7813 5.9955C11.8188 6.09862 11.8259 6.20419 11.8027 6.31219C11.7794 6.42019 11.7207 6.51619 11.6266 6.60019L9.55942 8.38612L10.1782 11.0439C10.2063 11.1658 10.1969 11.2761 10.15 11.3747C10.1032 11.4733 10.0375 11.5552 9.95317 11.6205C9.86879 11.6857 9.77036 11.7232 9.65786 11.733C9.54536 11.7427 9.43755 11.7146 9.33442 11.6486L7.00005 10.2424Z" fill="#F9BB47"/>
<path d="M19.7325 10.2424L17.3981 11.6486C17.295 11.7142 17.1872 11.7424 17.0747 11.733C16.9622 11.7236 16.8637 11.6861 16.7794 11.6205C16.695 11.5549 16.6294 11.4729 16.5825 11.3747C16.5356 11.2764 16.5262 11.1662 16.5544 11.0439L17.1731 8.38612L15.1059 6.60019C15.0122 6.51581 14.9537 6.41962 14.9304 6.31162C14.9072 6.20362 14.9141 6.09825 14.9512 5.9955C14.9884 5.89275 15.0446 5.80838 15.12 5.74238C15.1954 5.67638 15.2985 5.63419 15.4294 5.61581L18.1575 5.37675L19.2122 2.87363C19.259 2.76113 19.3318 2.67676 19.4304 2.62051C19.529 2.56426 19.6297 2.53613 19.7325 2.53613C19.8352 2.53613 19.9359 2.56426 20.0345 2.62051C20.1332 2.67676 20.2059 2.76113 20.2528 2.87363L21.3075 5.37675L24.0356 5.61581C24.1668 5.63456 24.27 5.67675 24.345 5.74238C24.42 5.808 24.4762 5.89238 24.5137 5.9955C24.5512 6.09862 24.5583 6.20419 24.5351 6.31219C24.5118 6.42019 24.4531 6.51619 24.359 6.60019L22.2918 8.38612L22.9106 11.0439C22.9387 11.1658 22.9293 11.2761 22.8825 11.3747C22.8356 11.4733 22.77 11.5552 22.6856 11.6205C22.6012 11.6857 22.5028 11.7232 22.3903 11.733C22.2778 11.7427 22.17 11.7146 22.0668 11.6486L19.7325 10.2424Z" fill="#F9BB47"/>
<path d="M32.4659 10.2424L30.1315 11.6486C30.0284 11.7142 29.9206 11.7424 29.8081 11.733C29.6956 11.7236 29.5971 11.6861 29.5128 11.6205C29.4284 11.5549 29.3628 11.4729 29.3159 11.3747C29.269 11.2764 29.2596 11.1662 29.2878 11.0439L29.9065 8.38612L27.8393 6.60019C27.7456 6.51581 27.6871 6.41962 27.6638 6.31162C27.6406 6.20362 27.6475 6.09825 27.6846 5.9955C27.7218 5.89275 27.778 5.80838 27.8534 5.74238C27.9288 5.67638 28.0319 5.63419 28.1628 5.61581L30.8909 5.37675L31.9456 2.87363C31.9924 2.76113 32.0652 2.67676 32.1638 2.62051C32.2624 2.56426 32.3631 2.53613 32.4659 2.53613C32.5686 2.53613 32.6693 2.56426 32.7679 2.62051C32.8666 2.67676 32.9393 2.76113 32.9862 2.87363L34.0409 5.37675L36.769 5.61581C36.9002 5.63456 37.0034 5.67675 37.0784 5.74238C37.1534 5.808 37.2096 5.89238 37.2471 5.9955C37.2846 6.09862 37.2917 6.20419 37.2685 6.31219C37.2452 6.42019 37.1865 6.51619 37.0924 6.60019L35.0252 8.38612L35.644 11.0439C35.6721 11.1658 35.6627 11.2761 35.6159 11.3747C35.569 11.4733 35.5034 11.5552 35.419 11.6205C35.3346 11.6857 35.2362 11.7232 35.1237 11.733C35.0112 11.7427 34.9034 11.7146 34.8002 11.6486L32.4659 10.2424Z" fill="#F9BB47"/>
<path d="M45.1993 10.2424L42.8649 11.6486C42.7618 11.7142 42.654 11.7424 42.5415 11.733C42.429 11.7236 42.3305 11.6861 42.2462 11.6205C42.1618 11.5549 42.0962 11.4729 42.0493 11.3747C42.0024 11.2764 41.993 11.1662 42.0212 11.0439L42.6399 8.38612L40.5727 6.60019C40.479 6.51581 40.4205 6.41962 40.3972 6.31162C40.374 6.20362 40.3809 6.09825 40.418 5.9955C40.4552 5.89275 40.5114 5.80838 40.5868 5.74238C40.6622 5.67638 40.7653 5.63419 40.8962 5.61581L43.6243 5.37675L44.679 2.87363C44.7258 2.76113 44.7986 2.67676 44.8972 2.62051C44.9958 2.56426 45.0965 2.53613 45.1993 2.53613C45.302 2.53613 45.4027 2.56426 45.5013 2.62051C45.6 2.67676 45.6727 2.76113 45.7196 2.87363L46.7743 5.37675L49.5024 5.61581C49.6336 5.63456 49.7368 5.67675 49.8118 5.74238C49.8868 5.808 49.943 5.89238 49.9805 5.9955C50.018 6.09862 50.0251 6.20419 50.0019 6.31219C49.9786 6.42019 49.9199 6.51619 49.8258 6.60019L47.7586 8.38612L48.3774 11.0439C48.4055 11.1658 48.3961 11.2761 48.3493 11.3747C48.3024 11.4733 48.2368 11.5552 48.1524 11.6205C48.068 11.6857 47.9696 11.7232 47.8571 11.733C47.7446 11.7427 47.6368 11.7146 47.5336 11.6486L45.1993 10.2424Z" fill="#F9BB47"/>
<path d="M57.9317 10.2424L55.5973 11.6486C55.4942 11.7142 55.3864 11.7424 55.2739 11.733C55.1614 11.7236 55.0629 11.6861 54.9786 11.6205C54.8942 11.5549 54.8286 11.4729 54.7817 11.3747C54.7348 11.2764 54.7254 11.1662 54.7536 11.0439L55.3723 8.38612L53.3051 6.60019C53.2114 6.51581 53.1529 6.41962 53.1296 6.31162C53.1064 6.20362 53.1133 6.09825 53.1505 5.9955C53.1876 5.89275 53.2438 5.80838 53.3192 5.74238C53.3946 5.67638 53.4977 5.63419 53.6286 5.61581L56.3567 5.37675L57.4114 2.87363C57.4583 2.76113 57.531 2.67676 57.6296 2.62051C57.7283 2.56426 57.8289 2.53613 57.9317 2.53613C58.0344 2.53613 58.1351 2.56426 58.2338 2.62051C58.3324 2.67676 58.4051 2.76113 58.452 2.87363L59.5067 5.37675L62.2348 5.61581C62.3661 5.63456 62.4692 5.67675 62.5442 5.74238C62.6192 5.808 62.6754 5.89238 62.7129 5.9955C62.7504 6.09862 62.7576 6.20419 62.7343 6.31219C62.7111 6.42019 62.6524 6.51619 62.5582 6.60019L60.4911 8.38612L61.1098 11.0439C61.1379 11.1658 61.1286 11.2761 61.0817 11.3747C61.0348 11.4733 60.9692 11.5552 60.8848 11.6205C60.8004 11.6857 60.702 11.7232 60.5895 11.733C60.477 11.7427 60.3692 11.7146 60.2661 11.6486L57.9317 10.2424Z" fill="#F9BB47"/>
</svg>
