<svg width="17" height="17" viewBox="0 0 17 17" fill="none" xmlns="http://www.w3.org/2000/svg">
<path d="M8.15918 15.9652C8.10585 15.9652 8.05247 15.9565 8.00114 15.9392C6.94181 15.5859 1.65918 13.5465 1.65918 8.05721V4.13191C1.65918 3.89391 1.8272 3.68784 2.0612 3.64184C5.31453 2.99117 6.46788 2.41924 7.92855 1.69458C8.06921 1.62458 8.25582 1.6153 8.39648 1.6853C9.83715 2.4113 10.9751 2.98517 14.2578 3.64184C14.4918 3.68851 14.6598 3.89391 14.6598 4.13191V8.05786C14.6598 13.5472 9.3772 15.5865 8.31787 15.9399C8.26587 15.9565 8.21251 15.9652 8.15918 15.9652ZM2.65918 4.53995V8.05721C2.65918 12.6339 6.93785 14.4973 8.15918 14.9353C9.38051 14.4973 13.6592 12.6332 13.6592 8.05721V4.53995C10.7118 3.92329 9.47244 3.34451 8.16911 2.69051C6.78444 3.37517 5.58251 3.92929 2.65918 4.53995ZM7.85384 10.4853L10.5205 7.8186C10.7158 7.62327 10.7158 7.30658 10.5205 7.11124C10.3252 6.91591 10.0085 6.91591 9.81315 7.11124L7.49984 9.42456L6.51986 8.44458C6.32452 8.24924 6.00783 8.24924 5.8125 8.44458C5.61717 8.63991 5.61717 8.9566 5.8125 9.15193L7.14583 10.4853C7.24317 10.5826 7.37119 10.6319 7.49919 10.6319C7.62719 10.6319 7.75651 10.5833 7.85384 10.4853Z" fill="#25314C"/>
</svg>
