<svg width="44" height="40" viewBox="0 0 44 40" fill="none" xmlns="http://www.w3.org/2000/svg">
<path d="M14.7993 28.2977H13.6716C12.4259 28.2977 11.416 27.2879 11.416 26.0422V9.12565C11.416 7.87997 12.4259 6.87012 13.6716 6.87012H29.4603C30.706 6.87012 31.7158 7.87997 31.7158 9.12565V19.2756H40.738V26.0422C40.738 27.2879 39.7282 28.2977 38.4824 28.2977H36.2269" stroke="black" stroke-width="2.4225" stroke-linecap="round" stroke-linejoin="round"/>
<path d="M40.737 19.2754L37.9771 13.7556C37.595 12.9915 36.8139 12.5088 35.9598 12.5088H31.7148" stroke="black" stroke-width="2.4225" stroke-linecap="round" stroke-linejoin="round"/>
<path d="M32.8407 31.6816C30.9709 31.6816 29.4551 30.1656 29.4551 28.2958C29.4551 26.426 30.9709 24.9102 32.8407 24.9102C34.7107 24.9102 36.2264 26.426 36.2264 28.2958C36.2264 30.1656 34.7107 31.6816 32.8407 31.6816Z" stroke="black" stroke-width="2.4225" stroke-linecap="round" stroke-linejoin="round"/>
<path d="M18.1806 31.6816C16.3108 31.6816 14.7949 30.1656 14.7949 28.2958C14.7949 26.426 16.3108 24.9102 18.1806 24.9102C20.0505 24.9102 21.5663 26.426 21.5663 28.2958C21.5663 30.1656 20.0505 31.6816 18.1806 31.6816Z" stroke="black" stroke-width="2.4225" stroke-linecap="round" stroke-linejoin="round"/>
<path d="M21.5654 28.2979H29.4598" stroke="black" stroke-width="2.4225" stroke-linecap="round" stroke-linejoin="round"/>
<path d="M31.7148 19.2754V25.1009" stroke="black" stroke-width="2.4225" stroke-linecap="round" stroke-linejoin="round"/>
<path d="M1.86914 11.7754H7.86914" stroke="#28B0FF" stroke-width="2.63077" stroke-linecap="round" stroke-linejoin="round"/>
<path d="M5 16.7754L7 16.7754" stroke="#28B0FF" stroke-width="2.63077" stroke-linecap="round" stroke-linejoin="round"/>
<path d="M1.86914 21.7754H7.86914" stroke="#28B0FF" stroke-width="2.63077" stroke-linecap="round" stroke-linejoin="round"/>
</svg>
