<svg width="20" height="21" viewBox="0 0 20 21" fill="none" xmlns="http://www.w3.org/2000/svg">
<path d="M2.9139 7.22224L7.89284 2.2433C8.38456 1.75158 9.18177 1.75158 9.67348 2.2433C9.97117 2.54098 10.1004 2.96773 10.0178 3.38055L9.79423 4.4985C9.73185 4.81043 9.82948 5.13291 10.0544 5.35785C10.2588 5.56223 10.545 5.66262 10.8323 5.6307L11.8251 5.52039C12.2062 5.47805 12.5858 5.61123 12.8569 5.88233C13.0233 6.04867 13.1398 6.25817 13.1934 6.48722L14.4701 11.9429C14.5827 12.4244 14.8278 12.8648 15.1773 13.2144L17.1956 15.2326C18.0853 16.1224 18.0853 17.5647 17.1956 18.4543C16.7685 18.8815 16.189 19.1215 15.5848 19.1215H13.2591C11.8518 19.1215 10.5021 18.5625 9.50705 17.5673L2.9139 10.9742C1.87782 9.93813 1.87782 8.25831 2.9139 7.22224Z" stroke="#1A1A1A" stroke-width="1.42857" stroke-linecap="round" stroke-linejoin="round"/>
<path d="M14.7058 19.1221L5.45948 9.87579C4.96198 9.37829 4.28724 9.09878 3.58367 9.09873L2.22241 9.09863" stroke="#1A1A1A" stroke-width="1.42857" stroke-linecap="round" stroke-linejoin="round"/>
</svg>
