<svg width="45" height="46" viewBox="0 0 45 46" fill="none" xmlns="http://www.w3.org/2000/svg">
<path d="M13.0097 9.3188C12.8406 9.21855 12.648 9.16484 12.4515 9.16313C12.2549 9.16141 12.0614 9.21175 11.8906 9.30902C11.7198 9.4063 11.5778 9.54705 11.479 9.71697C11.3802 9.8869 11.3282 10.0799 11.3281 10.2765V36.0639C11.3282 36.2605 11.3802 36.4535 11.479 36.6235C11.5778 36.7934 11.7198 36.9341 11.8906 37.0314C12.0614 37.1287 12.2549 37.179 12.4515 37.1773C12.648 37.1756 12.8406 37.1219 13.0097 37.0216L34.7677 24.1279C34.9339 24.0293 35.0715 23.8892 35.1671 23.7213C35.2628 23.5533 35.313 23.3634 35.313 23.1702C35.313 22.977 35.2628 22.7871 35.1671 22.6192C35.0715 22.4513 34.9339 22.3111 34.7677 22.2125L13.0097 9.3188Z" fill="white" stroke="white" stroke-width="1.51858" stroke-linecap="round" stroke-linejoin="round"/>
</svg>
